<svg width="504" height="224" viewBox="0 0 504 224" fill="none" xmlns="http://www.w3.org/2000/svg">
<g filter="url(#filter0_b_1982_860)">
<rect width="504" height="224" rx="24" fill="#FEFEFE" fill-opacity="0.1"/>
<rect x="0.25" y="0.25" width="503.5" height="223.5" rx="23.75" stroke="#005AE2" stroke-width="0.5"/>
<path d="M110 63.3334H120C122.189 63.3334 124.356 63.7645 126.378 64.602C128.4 65.4396 130.237 66.6673 131.785 68.2149C133.333 69.7626 134.56 71.5999 135.398 73.622C136.235 75.6441 136.667 77.8113 136.667 80C136.667 82.1887 136.235 84.356 135.398 86.3781C134.56 88.4002 133.333 90.2375 131.785 91.7852C130.237 93.3328 128.4 94.5605 126.378 95.398C124.356 96.2356 122.189 96.6667 120 96.6667H110M89.9999 96.6667H79.9999C77.8112 96.6667 75.644 96.2356 73.6219 95.398C71.5998 94.5605 69.7624 93.3328 68.2148 91.7852C65.0892 88.6595 63.3333 84.4203 63.3333 80C63.3333 75.5798 65.0892 71.3405 68.2148 68.2149C71.3404 65.0893 75.5796 63.3334 79.9999 63.3334H89.9999" stroke="#141414" stroke-width="2" stroke-linecap="round" stroke-linejoin="round"/>
<path d="M86.6667 80H113.333" stroke="#141414" stroke-width="2" stroke-linecap="round" stroke-linejoin="round"/>
<path d="M182 63.3334H192C194.189 63.3334 196.356 63.7645 198.378 64.602C200.4 65.4396 202.237 66.6673 203.785 68.2149C205.333 69.7626 206.56 71.5999 207.398 73.622C208.235 75.6441 208.667 77.8113 208.667 80C208.667 82.1887 208.235 84.356 207.398 86.3781C206.56 88.4002 205.333 90.2375 203.785 91.7852C202.237 93.3328 200.4 94.5605 198.378 95.398C196.356 96.2356 194.189 96.6667 192 96.6667H182M162 96.6667H152C149.811 96.6667 147.644 96.2356 145.622 95.398C143.6 94.5605 141.762 93.3328 140.215 91.7852C137.089 88.6595 135.333 84.4203 135.333 80C135.333 75.5798 137.089 71.3405 140.215 68.2149C143.34 65.0893 147.58 63.3334 152 63.3334H162" stroke="#141414" stroke-width="2" stroke-linecap="round" stroke-linejoin="round"/>
<path d="M158.667 80H185.333" stroke="#141414" stroke-width="2" stroke-linecap="round" stroke-linejoin="round"/>
<path d="M254 63.3334H264C266.189 63.3334 268.356 63.7645 270.378 64.602C272.4 65.4396 274.237 66.6673 275.785 68.2149C277.333 69.7626 278.56 71.5999 279.398 73.622C280.235 75.6441 280.667 77.8113 280.667 80C280.667 82.1887 280.235 84.356 279.398 86.3781C278.56 88.4002 277.333 90.2375 275.785 91.7852C274.237 93.3328 272.4 94.5605 270.378 95.398C268.356 96.2356 266.189 96.6667 264 96.6667H254M234 96.6667H224C221.811 96.6667 219.644 96.2356 217.622 95.398C215.6 94.5605 213.762 93.3328 212.215 91.7852C209.089 88.6595 207.333 84.4203 207.333 80C207.333 75.5798 209.089 71.3405 212.215 68.2149C215.34 65.0893 219.58 63.3334 224 63.3334H234" stroke="#141414" stroke-width="2" stroke-linecap="round" stroke-linejoin="round"/>
<path d="M230.667 80H257.333" stroke="#141414" stroke-width="2" stroke-linecap="round" stroke-linejoin="round"/>
<path d="M304 79C303.448 79 303 79.4477 303 80C303 80.5523 303.448 81 304 81V79ZM344 80L334 74.2265V85.7735L344 80ZM304 81H335V79H304V81Z" fill="#005AE2"/>
<path d="M414 63.3334H424C426.189 63.3334 428.356 63.7645 430.378 64.602C432.4 65.4396 434.237 66.6673 435.785 68.2149C437.333 69.7626 438.56 71.5999 439.398 73.622C440.235 75.6441 440.667 77.8113 440.667 80C440.667 82.1887 440.235 84.356 439.398 86.3781C438.56 88.4002 437.333 90.2375 435.785 91.7852C434.237 93.3328 432.4 94.5605 430.378 95.398C428.356 96.2356 426.189 96.6667 424 96.6667H414M394 96.6667H384C381.811 96.6667 379.644 96.2356 377.622 95.398C375.6 94.5605 373.762 93.3328 372.215 91.7852C369.089 88.6595 367.333 84.4203 367.333 80C367.333 75.5798 369.089 71.3405 372.215 68.2149C375.34 65.0893 379.58 63.3334 384 63.3334H394" stroke="#141414" stroke-width="2" stroke-linecap="round" stroke-linejoin="round"/>
<path d="M390.667 80H417.333" stroke="#141414" stroke-width="2" stroke-linecap="round" stroke-linejoin="round"/>
<path d="M77.5582 152.208C76.5129 152.208 75.6169 151.963 74.8702 151.472C74.1342 150.981 73.6169 150.309 73.3182 149.456L74.5982 148.72C75.0355 150.075 76.0329 150.752 77.5902 150.752C78.3582 150.752 78.9449 150.597 79.3502 150.288C79.7555 149.968 79.9582 149.547 79.9582 149.024C79.9582 148.491 79.7555 148.091 79.3502 147.824C78.9449 147.557 78.2675 147.275 77.3182 146.976C76.8489 146.827 76.4915 146.709 76.2462 146.624C76.0009 146.528 75.6915 146.389 75.3182 146.208C74.9555 146.016 74.6835 145.824 74.5022 145.632C74.3209 145.429 74.1555 145.168 74.0062 144.848C73.8675 144.528 73.7982 144.165 73.7982 143.76C73.7982 142.789 74.1395 142.021 74.8222 141.456C75.5049 140.88 76.3369 140.592 77.3182 140.592C78.2035 140.592 78.9715 140.816 79.6222 141.264C80.2835 141.712 80.7795 142.304 81.1102 143.04L79.8622 143.76C79.3822 142.608 78.5342 142.032 77.3182 142.032C76.7102 142.032 76.2195 142.181 75.8462 142.48C75.4729 142.779 75.2862 143.184 75.2862 143.696C75.2862 144.187 75.4622 144.56 75.8142 144.816C76.1662 145.072 76.7742 145.339 77.6382 145.616C77.9475 145.712 78.1662 145.781 78.2942 145.824C78.4222 145.867 78.6195 145.941 78.8862 146.048C79.1635 146.155 79.3662 146.24 79.4942 146.304C79.6222 146.368 79.7929 146.459 80.0062 146.576C80.2302 146.693 80.3955 146.805 80.5022 146.912C80.6089 147.019 80.7315 147.152 80.8702 147.312C81.0195 147.461 81.1262 147.616 81.1902 147.776C81.2542 147.936 81.3075 148.123 81.3502 148.336C81.4035 148.539 81.4302 148.757 81.4302 148.992C81.4302 149.973 81.0729 150.757 80.3582 151.344C79.6435 151.92 78.7102 152.208 77.5582 152.208ZM84.2117 148.64C84.3504 149.355 84.6757 149.909 85.1877 150.304C85.7104 150.699 86.3504 150.896 87.1077 150.896C88.1637 150.896 88.9317 150.507 89.4117 149.728L90.5957 150.4C89.817 151.605 88.6437 152.208 87.0757 152.208C85.8064 152.208 84.7717 151.813 83.9717 151.024C83.1824 150.224 82.7877 149.216 82.7877 148C82.7877 146.795 83.177 145.792 83.9557 144.992C84.7344 144.192 85.7424 143.792 86.9797 143.792C88.153 143.792 89.1077 144.208 89.8437 145.04C90.5904 145.861 90.9637 146.853 90.9637 148.016C90.9637 148.219 90.9477 148.427 90.9157 148.64H84.2117ZM86.9797 145.104C86.233 145.104 85.6144 145.317 85.1237 145.744C84.633 146.16 84.329 146.72 84.2117 147.424H89.5557C89.4384 146.667 89.1397 146.091 88.6597 145.696C88.1797 145.301 87.6197 145.104 86.9797 145.104ZM99.1722 144H100.564V152H99.1722V150.624C98.4789 151.68 97.4709 152.208 96.1482 152.208C95.0282 152.208 94.0735 151.803 93.2842 150.992C92.4949 150.171 92.1002 149.173 92.1002 148C92.1002 146.827 92.4949 145.835 93.2842 145.024C94.0735 144.203 95.0282 143.792 96.1482 143.792C97.4709 143.792 98.4789 144.32 99.1722 145.376V144ZM96.3242 150.864C97.1349 150.864 97.8122 150.592 98.3562 150.048C98.9002 149.493 99.1722 148.811 99.1722 148C99.1722 147.189 98.9002 146.512 98.3562 145.968C97.8122 145.413 97.1349 145.136 96.3242 145.136C95.5242 145.136 94.8522 145.413 94.3082 145.968C93.7642 146.512 93.4922 147.189 93.4922 148C93.4922 148.811 93.7642 149.493 94.3082 150.048C94.8522 150.592 95.5242 150.864 96.3242 150.864ZM111.313 143.792C112.209 143.792 112.935 144.085 113.489 144.672C114.044 145.248 114.321 146.032 114.321 147.024V152H112.929V147.072C112.929 146.453 112.769 145.973 112.449 145.632C112.129 145.291 111.703 145.12 111.169 145.12C110.572 145.12 110.092 145.323 109.729 145.728C109.377 146.123 109.201 146.731 109.201 147.552V152H107.809V147.072C107.809 146.453 107.655 145.973 107.345 145.632C107.047 145.291 106.636 145.12 106.113 145.12C105.527 145.12 105.036 145.323 104.641 145.728C104.257 146.133 104.065 146.741 104.065 147.552V152H102.673V144H104.065V145.072C104.609 144.219 105.404 143.792 106.449 143.792C107.527 143.792 108.311 144.245 108.801 145.152C109.356 144.245 110.193 143.792 111.313 143.792ZM116.251 152V140.32H117.643V152H116.251ZM120.743 148.64C120.882 149.355 121.207 149.909 121.719 150.304C122.242 150.699 122.882 150.896 123.639 150.896C124.695 150.896 125.463 150.507 125.943 149.728L127.127 150.4C126.348 151.605 125.175 152.208 123.607 152.208C122.338 152.208 121.303 151.813 120.503 151.024C119.714 150.224 119.319 149.216 119.319 148C119.319 146.795 119.708 145.792 120.487 144.992C121.266 144.192 122.274 143.792 123.511 143.792C124.684 143.792 125.639 144.208 126.375 145.04C127.122 145.861 127.495 146.853 127.495 148.016C127.495 148.219 127.479 148.427 127.447 148.64H120.743ZM123.511 145.104C122.764 145.104 122.146 145.317 121.655 145.744C121.164 146.16 120.86 146.72 120.743 147.424H126.087C125.97 146.667 125.671 146.091 125.191 145.696C124.711 145.301 124.151 145.104 123.511 145.104ZM129.983 146.16C129.983 146.469 130.137 146.72 130.447 146.912C130.756 147.093 131.129 147.243 131.567 147.36C132.004 147.467 132.441 147.595 132.879 147.744C133.316 147.883 133.689 148.128 133.999 148.48C134.308 148.821 134.463 149.264 134.463 149.808C134.463 150.533 134.18 151.115 133.615 151.552C133.06 151.989 132.345 152.208 131.471 152.208C130.692 152.208 130.025 152.037 129.471 151.696C128.916 151.355 128.521 150.901 128.287 150.336L129.487 149.648C129.615 150.032 129.855 150.336 130.207 150.56C130.559 150.784 130.98 150.896 131.471 150.896C131.929 150.896 132.308 150.811 132.607 150.64C132.905 150.459 133.055 150.181 133.055 149.808C133.055 149.499 132.9 149.253 132.591 149.072C132.281 148.88 131.908 148.731 131.471 148.624C131.033 148.507 130.596 148.373 130.159 148.224C129.721 148.075 129.348 147.829 129.039 147.488C128.729 147.147 128.575 146.709 128.575 146.176C128.575 145.483 128.841 144.912 129.375 144.464C129.919 144.016 130.596 143.792 131.407 143.792C132.057 143.792 132.633 143.941 133.135 144.24C133.647 144.528 134.031 144.933 134.287 145.456L133.119 146.112C132.831 145.429 132.26 145.088 131.407 145.088C131.012 145.088 130.676 145.184 130.399 145.376C130.121 145.557 129.983 145.819 129.983 146.16ZM136.811 146.16C136.811 146.469 136.965 146.72 137.275 146.912C137.584 147.093 137.957 147.243 138.395 147.36C138.832 147.467 139.269 147.595 139.707 147.744C140.144 147.883 140.517 148.128 140.827 148.48C141.136 148.821 141.291 149.264 141.291 149.808C141.291 150.533 141.008 151.115 140.443 151.552C139.888 151.989 139.173 152.208 138.299 152.208C137.52 152.208 136.853 152.037 136.299 151.696C135.744 151.355 135.349 150.901 135.115 150.336L136.315 149.648C136.443 150.032 136.683 150.336 137.035 150.56C137.387 150.784 137.808 150.896 138.299 150.896C138.757 150.896 139.136 150.811 139.435 150.64C139.733 150.459 139.883 150.181 139.883 149.808C139.883 149.499 139.728 149.253 139.419 149.072C139.109 148.88 138.736 148.731 138.299 148.624C137.861 148.507 137.424 148.373 136.987 148.224C136.549 148.075 136.176 147.829 135.867 147.488C135.557 147.147 135.403 146.709 135.403 146.176C135.403 145.483 135.669 144.912 136.203 144.464C136.747 144.016 137.424 143.792 138.235 143.792C138.885 143.792 139.461 143.941 139.963 144.24C140.475 144.528 140.859 144.933 141.115 145.456L139.947 146.112C139.659 145.429 139.088 145.088 138.235 145.088C137.84 145.088 137.504 145.184 137.227 145.376C136.949 145.557 136.811 145.819 136.811 146.16ZM142.861 152V140.32H144.253V152H142.861ZM151.96 144H153.448L150.184 152.496C149.843 153.403 149.363 154.091 148.744 154.56C148.136 155.04 147.432 155.253 146.632 155.2V153.904C147.614 153.979 148.334 153.435 148.792 152.272L148.936 151.968L145.448 144H146.936L149.656 150.272L151.96 144ZM162.963 145.344H160.835V149.68C160.835 150.075 160.909 150.357 161.059 150.528C161.219 150.688 161.459 150.773 161.779 150.784C162.099 150.784 162.493 150.773 162.963 150.752V152C161.747 152.16 160.856 152.064 160.291 151.712C159.725 151.349 159.443 150.672 159.443 149.68V145.344H157.859V144H159.443V142.176L160.835 141.76V144H162.963V145.344ZM166.05 145.344C166.508 144.352 167.34 143.856 168.546 143.856V145.312C167.863 145.28 167.276 145.461 166.786 145.856C166.295 146.251 166.05 146.885 166.05 147.76V152H164.658V144H166.05V145.344ZM176.094 144H177.486V152H176.094V150.624C175.401 151.68 174.393 152.208 173.07 152.208C171.95 152.208 170.995 151.803 170.206 150.992C169.417 150.171 169.022 149.173 169.022 148C169.022 146.827 169.417 145.835 170.206 145.024C170.995 144.203 171.95 143.792 173.07 143.792C174.393 143.792 175.401 144.32 176.094 145.376V144ZM173.246 150.864C174.057 150.864 174.734 150.592 175.278 150.048C175.822 149.493 176.094 148.811 176.094 148C176.094 147.189 175.822 146.512 175.278 145.968C174.734 145.413 174.057 145.136 173.246 145.136C172.446 145.136 171.774 145.413 171.23 145.968C170.686 146.512 170.414 147.189 170.414 148C170.414 148.811 170.686 149.493 171.23 150.048C171.774 150.592 172.446 150.864 173.246 150.864ZM183.579 143.792C184.518 143.792 185.27 144.091 185.835 144.688C186.4 145.275 186.683 146.075 186.683 147.088V152H185.291V147.168C185.291 146.517 185.115 146.016 184.763 145.664C184.411 145.301 183.926 145.12 183.307 145.12C182.614 145.12 182.054 145.339 181.627 145.776C181.2 146.203 180.987 146.864 180.987 147.76V152H179.595V144H180.987V145.152C181.552 144.245 182.416 143.792 183.579 143.792ZM189.826 146.16C189.826 146.469 189.981 146.72 190.29 146.912C190.6 147.093 190.973 147.243 191.41 147.36C191.848 147.467 192.285 147.595 192.722 147.744C193.16 147.883 193.533 148.128 193.842 148.48C194.152 148.821 194.306 149.264 194.306 149.808C194.306 150.533 194.024 151.115 193.458 151.552C192.904 151.989 192.189 152.208 191.314 152.208C190.536 152.208 189.869 152.037 189.314 151.696C188.76 151.355 188.365 150.901 188.13 150.336L189.33 149.648C189.458 150.032 189.698 150.336 190.05 150.56C190.402 150.784 190.824 150.896 191.314 150.896C191.773 150.896 192.152 150.811 192.45 150.64C192.749 150.459 192.898 150.181 192.898 149.808C192.898 149.499 192.744 149.253 192.434 149.072C192.125 148.88 191.752 148.731 191.314 148.624C190.877 148.507 190.44 148.373 190.002 148.224C189.565 148.075 189.192 147.829 188.882 147.488C188.573 147.147 188.418 146.709 188.418 146.176C188.418 145.483 188.685 144.912 189.218 144.464C189.762 144.016 190.44 143.792 191.25 143.792C191.901 143.792 192.477 143.941 192.978 144.24C193.49 144.528 193.874 144.933 194.13 145.456L192.962 146.112C192.674 145.429 192.104 145.088 191.25 145.088C190.856 145.088 190.52 145.184 190.242 145.376C189.965 145.557 189.826 145.819 189.826 146.16ZM199.895 141.936C198.487 141.819 197.783 142.427 197.783 143.76V144H199.895V145.344H197.783V152H196.391V145.344H195.111V144H196.391V143.76C196.391 142.683 196.689 141.867 197.287 141.312C197.895 140.757 198.764 140.517 199.895 140.592V141.936ZM207.269 150.992C206.448 151.803 205.45 152.208 204.277 152.208C203.104 152.208 202.106 151.803 201.285 150.992C200.474 150.181 200.069 149.184 200.069 148C200.069 146.816 200.474 145.819 201.285 145.008C202.106 144.197 203.104 143.792 204.277 143.792C205.45 143.792 206.448 144.197 207.269 145.008C208.09 145.819 208.501 146.816 208.501 148C208.501 149.184 208.09 150.181 207.269 150.992ZM204.277 150.848C205.077 150.848 205.749 150.576 206.293 150.032C206.837 149.488 207.109 148.811 207.109 148C207.109 147.189 206.837 146.512 206.293 145.968C205.749 145.424 205.077 145.152 204.277 145.152C203.488 145.152 202.821 145.424 202.277 145.968C201.733 146.512 201.461 147.189 201.461 148C201.461 148.811 201.733 149.488 202.277 150.032C202.821 150.576 203.488 150.848 204.277 150.848ZM211.534 145.344C211.993 144.352 212.825 143.856 214.03 143.856V145.312C213.347 145.28 212.761 145.461 212.27 145.856C211.779 146.251 211.534 146.885 211.534 147.76V152H210.142V144H211.534V145.344ZM224.032 143.792C224.928 143.792 225.653 144.085 226.208 144.672C226.763 145.248 227.04 146.032 227.04 147.024V152H225.648V147.072C225.648 146.453 225.488 145.973 225.168 145.632C224.848 145.291 224.421 145.12 223.888 145.12C223.291 145.12 222.811 145.323 222.448 145.728C222.096 146.123 221.92 146.731 221.92 147.552V152H220.528V147.072C220.528 146.453 220.373 145.973 220.064 145.632C219.765 145.291 219.355 145.12 218.832 145.12C218.245 145.12 217.755 145.323 217.36 145.728C216.976 146.133 216.784 146.741 216.784 147.552V152H215.392V144H216.784V145.072C217.328 144.219 218.123 143.792 219.168 143.792C220.245 143.792 221.029 144.245 221.52 145.152C222.075 144.245 222.912 143.792 224.032 143.792ZM238.554 144H240.042L236.778 152.496C236.437 153.403 235.957 154.091 235.338 154.56C234.73 155.04 234.026 155.253 233.226 155.2V153.904C234.207 153.979 234.927 153.435 235.386 152.272L235.53 151.968L232.042 144H233.53L236.25 150.272L238.554 144ZM247.644 150.992C246.823 151.803 245.825 152.208 244.652 152.208C243.479 152.208 242.481 151.803 241.66 150.992C240.849 150.181 240.444 149.184 240.444 148C240.444 146.816 240.849 145.819 241.66 145.008C242.481 144.197 243.479 143.792 244.652 143.792C245.825 143.792 246.823 144.197 247.644 145.008C248.465 145.819 248.876 146.816 248.876 148C248.876 149.184 248.465 150.181 247.644 150.992ZM244.652 150.848C245.452 150.848 246.124 150.576 246.668 150.032C247.212 149.488 247.484 148.811 247.484 148C247.484 147.189 247.212 146.512 246.668 145.968C246.124 145.424 245.452 145.152 244.652 145.152C243.863 145.152 243.196 145.424 242.652 145.968C242.108 146.512 241.836 147.189 241.836 148C241.836 148.811 242.108 149.488 242.652 150.032C243.196 150.576 243.863 150.848 244.652 150.848ZM256.037 144H257.429V152H256.037V150.848C255.472 151.755 254.608 152.208 253.445 152.208C252.506 152.208 251.754 151.915 251.189 151.328C250.624 150.731 250.341 149.925 250.341 148.912V144H251.733V148.832C251.733 149.483 251.909 149.989 252.261 150.352C252.613 150.704 253.098 150.88 253.717 150.88C254.41 150.88 254.97 150.667 255.397 150.24C255.824 149.803 256.037 149.136 256.037 148.24V144ZM260.94 145.344C261.399 144.352 262.231 143.856 263.436 143.856V145.312C262.754 145.28 262.167 145.461 261.676 145.856C261.186 146.251 260.94 146.885 260.94 147.76V152H259.548V144H260.94V145.344ZM268.798 152V140.32H270.19V152H268.798ZM279.066 150.992C278.244 151.803 277.247 152.208 276.074 152.208C274.9 152.208 273.903 151.803 273.082 150.992C272.271 150.181 271.866 149.184 271.866 148C271.866 146.816 272.271 145.819 273.082 145.008C273.903 144.197 274.9 143.792 276.074 143.792C277.247 143.792 278.244 144.197 279.066 145.008C279.887 145.819 280.298 146.816 280.298 148C280.298 149.184 279.887 150.181 279.066 150.992ZM276.074 150.848C276.874 150.848 277.546 150.576 278.09 150.032C278.634 149.488 278.906 148.811 278.906 148C278.906 147.189 278.634 146.512 278.09 145.968C277.546 145.424 276.874 145.152 276.074 145.152C275.284 145.152 274.618 145.424 274.074 145.968C273.53 146.512 273.258 147.189 273.258 148C273.258 148.811 273.53 149.488 274.074 150.032C274.618 150.576 275.284 150.848 276.074 150.848ZM285.923 143.792C286.861 143.792 287.613 144.091 288.179 144.688C288.744 145.275 289.027 146.075 289.027 147.088V152H287.635V147.168C287.635 146.517 287.459 146.016 287.107 145.664C286.755 145.301 286.269 145.12 285.651 145.12C284.957 145.12 284.397 145.339 283.971 145.776C283.544 146.203 283.331 146.864 283.331 147.76V152H281.939V144H283.331V145.152C283.896 144.245 284.76 143.792 285.923 143.792ZM297.61 144H298.986V151.664C298.986 152.848 298.586 153.765 297.786 154.416C296.986 155.077 296.026 155.408 294.906 155.408C294.01 155.408 293.237 155.237 292.586 154.896C291.935 154.565 291.445 154.085 291.114 153.456L292.33 152.768C292.767 153.664 293.637 154.112 294.938 154.112C295.77 154.112 296.421 153.893 296.89 153.456C297.37 153.019 297.61 152.421 297.61 151.664V150.528C296.906 151.595 295.903 152.128 294.602 152.128C293.461 152.128 292.495 151.723 291.706 150.912C290.917 150.101 290.522 149.115 290.522 147.952C290.522 146.789 290.917 145.808 291.706 145.008C292.495 144.197 293.461 143.792 294.602 143.792C295.914 143.792 296.917 144.32 297.61 145.376V144ZM292.73 149.984C293.274 150.528 293.951 150.8 294.762 150.8C295.573 150.8 296.25 150.528 296.794 149.984C297.338 149.44 297.61 148.763 297.61 147.952C297.61 147.152 297.338 146.48 296.794 145.936C296.25 145.392 295.573 145.12 294.762 145.12C293.951 145.12 293.274 145.392 292.73 145.936C292.186 146.48 291.914 147.152 291.914 147.952C291.914 148.763 292.186 149.44 292.73 149.984ZM312.327 151.136C311.548 151.851 310.54 152.208 309.303 152.208C308.066 152.208 307.052 151.851 306.263 151.136C305.484 150.411 305.095 149.445 305.095 148.24V140.8H306.583V148.176C306.583 148.965 306.818 149.595 307.287 150.064C307.756 150.523 308.428 150.752 309.303 150.752C310.178 150.752 310.85 150.523 311.319 150.064C311.788 149.595 312.023 148.965 312.023 148.176V140.8H313.495V148.24C313.495 149.445 313.106 150.411 312.327 151.136ZM322.41 152L319.898 147.712H317.258V152H315.77V140.8H320.25C321.21 140.8 322.032 141.141 322.714 141.824C323.397 142.496 323.738 143.312 323.738 144.272C323.738 144.997 323.52 145.659 323.082 146.256C322.656 146.853 322.101 147.275 321.418 147.52L324.058 152H322.41ZM317.258 142.192V146.368H320.25C320.805 146.368 321.274 146.165 321.658 145.76C322.053 145.344 322.25 144.848 322.25 144.272C322.25 143.696 322.053 143.205 321.658 142.8C321.274 142.395 320.805 142.192 320.25 142.192H317.258ZM327.04 150.592H331.872V152H325.552V140.8H327.04V150.592ZM334.42 146.16C334.42 146.469 334.575 146.72 334.884 146.912C335.193 147.093 335.567 147.243 336.004 147.36C336.441 147.467 336.879 147.595 337.316 147.744C337.753 147.883 338.127 148.128 338.436 148.48C338.745 148.821 338.9 149.264 338.9 149.808C338.9 150.533 338.617 151.115 338.052 151.552C337.497 151.989 336.783 152.208 335.908 152.208C335.129 152.208 334.463 152.037 333.908 151.696C333.353 151.355 332.959 150.901 332.724 150.336L333.924 149.648C334.052 150.032 334.292 150.336 334.644 150.56C334.996 150.784 335.417 150.896 335.908 150.896C336.367 150.896 336.745 150.811 337.044 150.64C337.343 150.459 337.492 150.181 337.492 149.808C337.492 149.499 337.337 149.253 337.028 149.072C336.719 148.88 336.345 148.731 335.908 148.624C335.471 148.507 335.033 148.373 334.596 148.224C334.159 148.075 333.785 147.829 333.476 147.488C333.167 147.147 333.012 146.709 333.012 146.176C333.012 145.483 333.279 144.912 333.812 144.464C334.356 144.016 335.033 143.792 335.844 143.792C336.495 143.792 337.071 143.941 337.572 144.24C338.084 144.528 338.468 144.933 338.724 145.456L337.556 146.112C337.268 145.429 336.697 145.088 335.844 145.088C335.449 145.088 335.113 145.184 334.836 145.376C334.559 145.557 334.42 145.819 334.42 146.16ZM345.252 142.544C344.986 142.544 344.762 142.453 344.58 142.272C344.399 142.091 344.308 141.872 344.308 141.616C344.308 141.36 344.399 141.141 344.58 140.96C344.762 140.768 344.986 140.672 345.252 140.672C345.508 140.672 345.727 140.768 345.908 140.96C346.09 141.141 346.18 141.36 346.18 141.616C346.18 141.872 346.09 142.091 345.908 142.272C345.727 142.453 345.508 142.544 345.252 142.544ZM344.548 152V144H345.94V152H344.548ZM352.048 143.792C352.986 143.792 353.738 144.091 354.304 144.688C354.869 145.275 355.152 146.075 355.152 147.088V152H353.76V147.168C353.76 146.517 353.584 146.016 353.232 145.664C352.88 145.301 352.394 145.12 351.776 145.12C351.082 145.12 350.522 145.339 350.096 145.776C349.669 146.203 349.456 146.864 349.456 147.76V152H348.064V144H349.456V145.152C350.021 144.245 350.885 143.792 352.048 143.792ZM361.447 145.344H359.319V149.68C359.319 150.075 359.394 150.357 359.543 150.528C359.703 150.688 359.943 150.773 360.263 150.784C360.583 150.784 360.978 150.773 361.447 150.752V152C360.231 152.16 359.34 152.064 358.775 151.712C358.21 151.349 357.927 150.672 357.927 149.68V145.344H356.343V144H357.927V142.176L359.319 141.76V144H361.447V145.344ZM369.441 150.992C368.619 151.803 367.622 152.208 366.449 152.208C365.275 152.208 364.278 151.803 363.457 150.992C362.646 150.181 362.241 149.184 362.241 148C362.241 146.816 362.646 145.819 363.457 145.008C364.278 144.197 365.275 143.792 366.449 143.792C367.622 143.792 368.619 144.197 369.441 145.008C370.262 145.819 370.673 146.816 370.673 148C370.673 149.184 370.262 150.181 369.441 150.992ZM366.449 150.848C367.249 150.848 367.921 150.576 368.465 150.032C369.009 149.488 369.281 148.811 369.281 148C369.281 147.189 369.009 146.512 368.465 145.968C367.921 145.424 367.249 145.152 366.449 145.152C365.659 145.152 364.993 145.424 364.449 145.968C363.905 146.512 363.633 147.189 363.633 148C363.633 148.811 363.905 149.488 364.449 150.032C364.993 150.576 365.659 150.848 366.449 150.848ZM380.042 152.208C378.836 152.208 377.828 151.803 377.018 150.992C376.218 150.181 375.818 149.184 375.818 148C375.818 146.805 376.218 145.808 377.018 145.008C377.828 144.197 378.836 143.792 380.042 143.792C380.82 143.792 381.53 143.979 382.17 144.352C382.81 144.725 383.29 145.227 383.61 145.856L382.122 146.72C381.94 146.336 381.663 146.037 381.29 145.824C380.927 145.6 380.506 145.488 380.026 145.488C379.322 145.488 378.73 145.728 378.25 146.208C377.78 146.688 377.546 147.285 377.546 148C377.546 148.715 377.78 149.312 378.25 149.792C378.73 150.272 379.322 150.512 380.026 150.512C380.495 150.512 380.916 150.4 381.29 150.176C381.674 149.952 381.962 149.653 382.154 149.28L383.642 150.128C383.3 150.768 382.81 151.275 382.17 151.648C381.53 152.021 380.82 152.208 380.042 152.208ZM388.542 152.208C387.368 152.208 386.371 151.803 385.55 150.992C384.728 150.181 384.318 149.184 384.318 148C384.318 146.816 384.728 145.819 385.55 145.008C386.371 144.197 387.368 143.792 388.542 143.792C389.726 143.792 390.723 144.197 391.534 145.008C392.355 145.819 392.766 146.816 392.766 148C392.766 149.184 392.355 150.181 391.534 150.992C390.723 151.803 389.726 152.208 388.542 152.208ZM386.766 149.808C387.246 150.288 387.838 150.528 388.542 150.528C389.246 150.528 389.838 150.288 390.318 149.808C390.798 149.328 391.038 148.725 391.038 148C391.038 147.275 390.798 146.672 390.318 146.192C389.838 145.712 389.246 145.472 388.542 145.472C387.838 145.472 387.246 145.712 386.766 146.192C386.286 146.672 386.046 147.275 386.046 148C386.046 148.725 386.286 149.328 386.766 149.808ZM398.536 143.792C399.454 143.792 400.195 144.085 400.76 144.672C401.326 145.259 401.608 146.064 401.608 147.088V152H399.88V147.264C399.88 146.667 399.72 146.208 399.4 145.888C399.08 145.568 398.643 145.408 398.088 145.408C397.48 145.408 396.99 145.6 396.616 145.984C396.243 146.357 396.056 146.933 396.056 147.712V152H394.328V144H396.056V145.024C396.579 144.203 397.406 143.792 398.536 143.792ZM407.245 152.208C406.04 152.208 405.032 151.803 404.221 150.992C403.421 150.181 403.021 149.184 403.021 148C403.021 146.805 403.421 145.808 404.221 145.008C405.032 144.197 406.04 143.792 407.245 143.792C408.024 143.792 408.733 143.979 409.373 144.352C410.013 144.725 410.493 145.227 410.813 145.856L409.325 146.72C409.144 146.336 408.866 146.037 408.493 145.824C408.13 145.6 407.709 145.488 407.229 145.488C406.525 145.488 405.933 145.728 405.453 146.208C404.984 146.688 404.749 147.285 404.749 148C404.749 148.715 404.984 149.312 405.453 149.792C405.933 150.272 406.525 150.512 407.229 150.512C407.698 150.512 408.12 150.4 408.493 150.176C408.877 149.952 409.165 149.653 409.357 149.28L410.845 150.128C410.504 150.768 410.013 151.275 409.373 151.648C408.733 152.021 408.024 152.208 407.245 152.208ZM413.726 142.48C413.513 142.693 413.257 142.8 412.958 142.8C412.659 142.8 412.398 142.693 412.174 142.48C411.961 142.256 411.854 141.995 411.854 141.696C411.854 141.397 411.961 141.141 412.174 140.928C412.387 140.704 412.649 140.592 412.958 140.592C413.267 140.592 413.529 140.704 413.742 140.928C413.955 141.141 414.062 141.397 414.062 141.696C414.062 141.995 413.95 142.256 413.726 142.48ZM412.094 152V144H413.822V152H412.094ZM417.333 146.208C417.333 146.475 417.477 146.688 417.765 146.848C418.064 146.997 418.421 147.131 418.837 147.248C419.264 147.355 419.691 147.483 420.117 147.632C420.544 147.781 420.901 148.037 421.189 148.4C421.488 148.752 421.637 149.2 421.637 149.744C421.637 150.512 421.339 151.115 420.741 151.552C420.155 151.989 419.413 152.208 418.517 152.208C417.728 152.208 417.051 152.043 416.485 151.712C415.92 151.381 415.509 150.923 415.253 150.336L416.741 149.472C417.019 150.24 417.611 150.624 418.517 150.624C419.424 150.624 419.877 150.325 419.877 149.728C419.877 149.472 419.728 149.264 419.429 149.104C419.141 148.944 418.784 148.811 418.357 148.704C417.941 148.587 417.52 148.453 417.093 148.304C416.667 148.155 416.304 147.909 416.005 147.568C415.717 147.216 415.573 146.773 415.573 146.24C415.573 145.504 415.851 144.912 416.405 144.464C416.971 144.016 417.669 143.792 418.501 143.792C419.163 143.792 419.749 143.941 420.261 144.24C420.784 144.528 421.184 144.933 421.461 145.456L420.005 146.272C419.728 145.664 419.227 145.36 418.501 145.36C418.171 145.36 417.893 145.435 417.669 145.584C417.445 145.723 417.333 145.931 417.333 146.208ZM424.313 148.736C424.441 149.344 424.735 149.813 425.193 150.144C425.652 150.464 426.212 150.624 426.873 150.624C427.791 150.624 428.479 150.293 428.937 149.632L430.361 150.464C429.572 151.627 428.404 152.208 426.857 152.208C425.556 152.208 424.505 151.813 423.705 151.024C422.905 150.224 422.505 149.216 422.505 148C422.505 146.805 422.9 145.808 423.689 145.008C424.479 144.197 425.492 143.792 426.729 143.792C427.903 143.792 428.863 144.203 429.609 145.024C430.367 145.845 430.745 146.843 430.745 148.016C430.745 148.197 430.724 148.437 430.681 148.736H424.313ZM424.297 147.328H429.001C428.884 146.677 428.612 146.187 428.185 145.856C427.769 145.525 427.279 145.36 426.713 145.36C426.073 145.36 425.54 145.536 425.113 145.888C424.687 146.24 424.415 146.72 424.297 147.328ZM117.25 168H118.642V176H117.25V174.624C116.557 175.68 115.549 176.208 114.226 176.208C113.106 176.208 112.152 175.803 111.362 174.992C110.573 174.171 110.178 173.173 110.178 172C110.178 170.827 110.573 169.835 111.362 169.024C112.152 168.203 113.106 167.792 114.226 167.792C115.549 167.792 116.557 168.32 117.25 169.376V168ZM114.402 174.864C115.213 174.864 115.89 174.592 116.434 174.048C116.978 173.493 117.25 172.811 117.25 172C117.25 171.189 116.978 170.512 116.434 169.968C115.89 169.413 115.213 169.136 114.402 169.136C113.602 169.136 112.93 169.413 112.386 169.968C111.842 170.512 111.57 171.189 111.57 172C111.57 172.811 111.842 173.493 112.386 174.048C112.93 174.592 113.602 174.864 114.402 174.864ZM124.735 167.792C125.674 167.792 126.426 168.091 126.991 168.688C127.557 169.275 127.839 170.075 127.839 171.088V176H126.447V171.168C126.447 170.517 126.271 170.016 125.919 169.664C125.567 169.301 125.082 169.12 124.463 169.12C123.77 169.12 123.21 169.339 122.783 169.776C122.357 170.203 122.143 170.864 122.143 171.76V176H120.751V168H122.143V169.152C122.709 168.245 123.573 167.792 124.735 167.792ZM136.407 164.8H137.799V176H136.407V174.624C135.713 175.68 134.705 176.208 133.383 176.208C132.263 176.208 131.308 175.803 130.519 174.992C129.729 174.171 129.335 173.173 129.335 172C129.335 170.827 129.729 169.835 130.519 169.024C131.308 168.203 132.263 167.792 133.383 167.792C134.705 167.792 135.713 168.32 136.407 169.376V164.8ZM133.559 174.864C134.369 174.864 135.047 174.592 135.591 174.048C136.135 173.493 136.407 172.811 136.407 172C136.407 171.189 136.135 170.512 135.591 169.968C135.047 169.413 134.369 169.136 133.559 169.136C132.759 169.136 132.087 169.413 131.543 169.968C130.999 170.512 130.727 171.189 130.727 172C130.727 172.811 130.999 173.493 131.543 174.048C132.087 174.592 132.759 174.864 133.559 174.864ZM145.412 170.208C145.412 170.475 145.556 170.688 145.844 170.848C146.142 170.997 146.5 171.131 146.916 171.248C147.342 171.355 147.769 171.483 148.196 171.632C148.622 171.781 148.98 172.037 149.268 172.4C149.566 172.752 149.716 173.2 149.716 173.744C149.716 174.512 149.417 175.115 148.82 175.552C148.233 175.989 147.492 176.208 146.596 176.208C145.806 176.208 145.129 176.043 144.564 175.712C143.998 175.381 143.588 174.923 143.332 174.336L144.82 173.472C145.097 174.24 145.689 174.624 146.596 174.624C147.502 174.624 147.956 174.325 147.956 173.728C147.956 173.472 147.806 173.264 147.508 173.104C147.22 172.944 146.862 172.811 146.436 172.704C146.02 172.587 145.598 172.453 145.172 172.304C144.745 172.155 144.382 171.909 144.084 171.568C143.796 171.216 143.652 170.773 143.652 170.24C143.652 169.504 143.929 168.912 144.484 168.464C145.049 168.016 145.748 167.792 146.58 167.792C147.241 167.792 147.828 167.941 148.34 168.24C148.862 168.528 149.262 168.933 149.54 169.456L148.084 170.272C147.806 169.664 147.305 169.36 146.58 169.36C146.249 169.36 145.972 169.435 145.748 169.584C145.524 169.723 145.412 169.931 145.412 170.208ZM155.349 167.792C156.266 167.792 157.007 168.085 157.573 168.672C158.138 169.259 158.421 170.064 158.421 171.088V176H156.693V171.264C156.693 170.667 156.533 170.208 156.213 169.888C155.893 169.568 155.455 169.408 154.901 169.408C154.293 169.408 153.802 169.6 153.429 169.984C153.055 170.357 152.869 170.933 152.869 171.712V176H151.141V164.8H152.869V169.024C153.391 168.203 154.218 167.792 155.349 167.792ZM166.617 168H168.345V176H166.617V174.848C165.967 175.755 165.033 176.208 163.817 176.208C162.719 176.208 161.78 175.803 161.001 174.992C160.223 174.171 159.833 173.173 159.833 172C159.833 170.816 160.223 169.819 161.001 169.008C161.78 168.197 162.719 167.792 163.817 167.792C165.033 167.792 165.967 168.24 166.617 169.136V168ZM162.281 173.84C162.761 174.32 163.364 174.56 164.089 174.56C164.815 174.56 165.417 174.32 165.897 173.84C166.377 173.349 166.617 172.736 166.617 172C166.617 171.264 166.377 170.656 165.897 170.176C165.417 169.685 164.815 169.44 164.089 169.44C163.364 169.44 162.761 169.685 162.281 170.176C161.801 170.656 161.561 171.264 161.561 172C161.561 172.736 161.801 173.349 162.281 173.84ZM172.088 169.344C172.525 168.352 173.346 167.856 174.552 167.856V169.728C173.89 169.685 173.314 169.845 172.824 170.208C172.333 170.56 172.088 171.147 172.088 171.968V176H170.36V168H172.088V169.344ZM176.813 172.736C176.941 173.344 177.235 173.813 177.693 174.144C178.152 174.464 178.712 174.624 179.373 174.624C180.291 174.624 180.979 174.293 181.437 173.632L182.861 174.464C182.072 175.627 180.904 176.208 179.357 176.208C178.056 176.208 177.005 175.813 176.205 175.024C175.405 174.224 175.005 173.216 175.005 172C175.005 170.805 175.4 169.808 176.189 169.008C176.979 168.197 177.992 167.792 179.229 167.792C180.403 167.792 181.363 168.203 182.109 169.024C182.867 169.845 183.245 170.843 183.245 172.016C183.245 172.197 183.224 172.437 183.181 172.736H176.813ZM176.797 171.328H181.501C181.384 170.677 181.112 170.187 180.685 169.856C180.269 169.525 179.779 169.36 179.213 169.36C178.573 169.36 178.04 169.536 177.613 169.888C177.187 170.24 176.915 170.72 176.797 171.328ZM191.055 168H192.783V176H191.055V174.848C190.404 175.755 189.471 176.208 188.255 176.208C187.156 176.208 186.218 175.803 185.439 174.992C184.66 174.171 184.271 173.173 184.271 172C184.271 170.816 184.66 169.819 185.439 169.008C186.218 168.197 187.156 167.792 188.255 167.792C189.471 167.792 190.404 168.24 191.055 169.136V168ZM186.719 173.84C187.199 174.32 187.802 174.56 188.527 174.56C189.252 174.56 189.855 174.32 190.335 173.84C190.815 173.349 191.055 172.736 191.055 172C191.055 171.264 190.815 170.656 190.335 170.176C189.855 169.685 189.252 169.44 188.527 169.44C187.802 169.44 187.199 169.685 186.719 170.176C186.239 170.656 185.999 171.264 185.999 172C185.999 172.736 186.239 173.349 186.719 173.84ZM199.325 167.792C200.424 167.792 201.362 168.197 202.141 169.008C202.92 169.819 203.309 170.816 203.309 172C203.309 173.173 202.92 174.171 202.141 174.992C201.362 175.803 200.424 176.208 199.325 176.208C198.109 176.208 197.176 175.755 196.525 174.848V176H194.797V164.8H196.525V169.136C197.176 168.24 198.109 167.792 199.325 167.792ZM197.245 173.84C197.725 174.32 198.328 174.56 199.053 174.56C199.778 174.56 200.381 174.32 200.861 173.84C201.341 173.349 201.581 172.736 201.581 172C201.581 171.264 201.341 170.656 200.861 170.176C200.381 169.685 199.778 169.44 199.053 169.44C198.328 169.44 197.725 169.685 197.245 170.176C196.765 170.656 196.525 171.264 196.525 172C196.525 172.736 196.765 173.349 197.245 173.84ZM204.875 176V164.32H206.603V176H204.875ZM209.97 172.736C210.098 173.344 210.391 173.813 210.85 174.144C211.308 174.464 211.868 174.624 212.53 174.624C213.447 174.624 214.135 174.293 214.594 173.632L216.018 174.464C215.228 175.627 214.06 176.208 212.514 176.208C211.212 176.208 210.162 175.813 209.362 175.024C208.562 174.224 208.162 173.216 208.162 172C208.162 170.805 208.556 169.808 209.346 169.008C210.135 168.197 211.148 167.792 212.386 167.792C213.559 167.792 214.519 168.203 215.266 169.024C216.023 169.845 216.402 170.843 216.402 172.016C216.402 172.197 216.38 172.437 216.338 172.736H209.97ZM209.954 171.328H214.658C214.54 170.677 214.268 170.187 213.842 169.856C213.426 169.525 212.935 169.36 212.37 169.36C211.73 169.36 211.196 169.536 210.77 169.888C210.343 170.24 210.071 170.72 209.954 171.328ZM221.922 176V164.32H223.65V176H221.922ZM227.288 166.48C227.075 166.693 226.819 166.8 226.52 166.8C226.222 166.8 225.96 166.693 225.736 166.48C225.523 166.256 225.416 165.995 225.416 165.696C225.416 165.397 225.523 165.141 225.736 164.928C225.95 164.704 226.211 164.592 226.52 164.592C226.83 164.592 227.091 164.704 227.304 164.928C227.518 165.141 227.624 165.397 227.624 165.696C227.624 165.995 227.512 166.256 227.288 166.48ZM225.656 176V168H227.384V176H225.656ZM233.599 167.792C234.516 167.792 235.257 168.085 235.823 168.672C236.388 169.259 236.671 170.064 236.671 171.088V176H234.943V171.264C234.943 170.667 234.783 170.208 234.463 169.888C234.143 169.568 233.705 169.408 233.151 169.408C232.543 169.408 232.052 169.6 231.679 169.984C231.305 170.357 231.119 170.933 231.119 171.712V176H229.391V168H231.119V169.024C231.641 168.203 232.468 167.792 233.599 167.792ZM245.603 176H243.539L240.259 172.304V176H238.531V164.8H240.259V171.536L243.363 168H245.475L241.955 171.92L245.603 176ZM247.755 170.208C247.755 170.475 247.899 170.688 248.187 170.848C248.486 170.997 248.843 171.131 249.259 171.248C249.686 171.355 250.113 171.483 250.539 171.632C250.966 171.781 251.323 172.037 251.611 172.4C251.91 172.752 252.059 173.2 252.059 173.744C252.059 174.512 251.761 175.115 251.163 175.552C250.577 175.989 249.835 176.208 248.939 176.208C248.15 176.208 247.473 176.043 246.907 175.712C246.342 175.381 245.931 174.923 245.675 174.336L247.163 173.472C247.441 174.24 248.033 174.624 248.939 174.624C249.846 174.624 250.299 174.325 250.299 173.728C250.299 173.472 250.15 173.264 249.851 173.104C249.563 172.944 249.206 172.811 248.779 172.704C248.363 172.587 247.942 172.453 247.515 172.304C247.089 172.155 246.726 171.909 246.427 171.568C246.139 171.216 245.995 170.773 245.995 170.24C245.995 169.504 246.273 168.912 246.827 168.464C247.393 168.016 248.091 167.792 248.923 167.792C249.585 167.792 250.171 167.941 250.683 168.24C251.206 168.528 251.606 168.933 251.883 169.456L250.427 170.272C250.15 169.664 249.649 169.36 248.923 169.36C248.593 169.36 248.315 169.435 248.091 169.584C247.867 169.723 247.755 169.931 247.755 170.208ZM267.05 168H268.506L266.026 176H264.602L262.73 170.08L260.858 176H259.434L256.954 168H258.41L260.17 174.08L262.058 168H263.402L265.29 174.096L267.05 168ZM270.643 166.544C270.376 166.544 270.152 166.453 269.971 166.272C269.789 166.091 269.699 165.872 269.699 165.616C269.699 165.36 269.789 165.141 269.971 164.96C270.152 164.768 270.376 164.672 270.643 164.672C270.899 164.672 271.117 164.768 271.299 164.96C271.48 165.141 271.571 165.36 271.571 165.616C271.571 165.872 271.48 166.091 271.299 166.272C271.117 166.453 270.899 166.544 270.643 166.544ZM269.939 176V168H271.331V176H269.939ZM277.806 169.344H275.678V173.68C275.678 174.075 275.753 174.357 275.902 174.528C276.062 174.688 276.302 174.773 276.622 174.784C276.942 174.784 277.337 174.773 277.806 174.752V176C276.59 176.16 275.7 176.064 275.134 175.712C274.569 175.349 274.286 174.672 274.286 173.68V169.344H272.702V168H274.286V166.176L275.678 165.76V168H277.806V169.344ZM283.438 167.792C284.377 167.792 285.129 168.091 285.694 168.688C286.26 169.275 286.542 170.075 286.542 171.088V176H285.15V171.168C285.15 170.517 284.974 170.016 284.622 169.664C284.27 169.301 283.785 169.12 283.166 169.12C282.473 169.12 281.913 169.339 281.486 169.776C281.06 170.203 280.846 170.864 280.846 171.76V176H279.454V164.8H280.846V169.152C281.412 168.245 282.276 167.792 283.438 167.792ZM293.542 166.544C293.275 166.544 293.051 166.453 292.87 166.272C292.688 166.091 292.598 165.872 292.598 165.616C292.598 165.36 292.688 165.141 292.87 164.96C293.051 164.768 293.275 164.672 293.542 164.672C293.798 164.672 294.016 164.768 294.198 164.96C294.379 165.141 294.47 165.36 294.47 165.616C294.47 165.872 294.379 166.091 294.198 166.272C294.016 166.453 293.798 166.544 293.542 166.544ZM292.838 176.48V168H294.23V176.48C294.23 177.515 293.968 178.277 293.446 178.768C292.923 179.269 292.155 179.483 291.142 179.408V178.064C291.728 178.117 292.155 178.021 292.422 177.776C292.699 177.531 292.838 177.099 292.838 176.48ZM301.865 168H303.257V176H301.865V174.848C301.3 175.755 300.436 176.208 299.273 176.208C298.334 176.208 297.582 175.915 297.017 175.328C296.452 174.731 296.169 173.925 296.169 172.912V168H297.561V172.832C297.561 173.483 297.737 173.989 298.089 174.352C298.441 174.704 298.926 174.88 299.545 174.88C300.238 174.88 300.798 174.667 301.225 174.24C301.652 173.803 301.865 173.136 301.865 172.24V168ZM306.561 170.16C306.561 170.469 306.715 170.72 307.025 170.912C307.334 171.093 307.707 171.243 308.145 171.36C308.582 171.467 309.019 171.595 309.457 171.744C309.894 171.883 310.267 172.128 310.577 172.48C310.886 172.821 311.041 173.264 311.041 173.808C311.041 174.533 310.758 175.115 310.193 175.552C309.638 175.989 308.923 176.208 308.049 176.208C307.27 176.208 306.603 176.037 306.049 175.696C305.494 175.355 305.099 174.901 304.865 174.336L306.065 173.648C306.193 174.032 306.433 174.336 306.785 174.56C307.137 174.784 307.558 174.896 308.049 174.896C308.507 174.896 308.886 174.811 309.185 174.64C309.483 174.459 309.633 174.181 309.633 173.808C309.633 173.499 309.478 173.253 309.169 173.072C308.859 172.88 308.486 172.731 308.049 172.624C307.611 172.507 307.174 172.373 306.737 172.224C306.299 172.075 305.926 171.829 305.617 171.488C305.307 171.147 305.153 170.709 305.153 170.176C305.153 169.483 305.419 168.912 305.953 168.464C306.497 168.016 307.174 167.792 307.985 167.792C308.635 167.792 309.211 167.941 309.713 168.24C310.225 168.528 310.609 168.933 310.865 169.456L309.697 170.112C309.409 169.429 308.838 169.088 307.985 169.088C307.59 169.088 307.254 169.184 306.977 169.376C306.699 169.557 306.561 169.819 306.561 170.16ZM316.728 169.344H314.6V173.68C314.6 174.075 314.675 174.357 314.824 174.528C314.984 174.688 315.224 174.773 315.544 174.784C315.864 174.784 316.259 174.773 316.728 174.752V176C315.512 176.16 314.622 176.064 314.056 175.712C313.491 175.349 313.208 174.672 313.208 173.68V169.344H311.624V168H313.208V166.176L314.6 165.76V168H316.728V169.344ZM326.535 165.936C325.127 165.819 324.423 166.427 324.423 167.76V168H326.535V169.344H324.423V176H323.031V169.344H321.751V168H323.031V167.76C323.031 166.683 323.33 165.867 323.927 165.312C324.535 164.757 325.405 164.517 326.535 164.592V165.936ZM328.134 172.64C328.272 173.355 328.598 173.909 329.11 174.304C329.632 174.699 330.272 174.896 331.03 174.896C332.086 174.896 332.854 174.507 333.334 173.728L334.518 174.4C333.739 175.605 332.566 176.208 330.998 176.208C329.728 176.208 328.694 175.813 327.894 175.024C327.104 174.224 326.71 173.216 326.71 172C326.71 170.795 327.099 169.792 327.878 168.992C328.656 168.192 329.664 167.792 330.902 167.792C332.075 167.792 333.03 168.208 333.766 169.04C334.512 169.861 334.886 170.853 334.886 172.016C334.886 172.219 334.87 172.427 334.838 172.64H328.134ZM330.902 169.104C330.155 169.104 329.536 169.317 329.046 169.744C328.555 170.16 328.251 170.72 328.134 171.424H333.478C333.36 170.667 333.062 170.091 332.582 169.696C332.102 169.301 331.542 169.104 330.902 169.104ZM345.597 168H347.053L344.573 176H343.149L341.277 170.08L339.405 176H337.981L335.501 168H336.957L338.717 174.08L340.605 168H341.949L343.837 174.096L345.597 168ZM356.246 176.208C355.04 176.208 354.038 175.808 353.238 175.008C352.438 174.197 352.038 173.195 352.038 172C352.038 170.805 352.438 169.808 353.238 169.008C354.038 168.197 355.04 167.792 356.246 167.792C357.035 167.792 357.744 167.984 358.374 168.368C359.003 168.741 359.472 169.248 359.782 169.888L358.614 170.56C358.411 170.133 358.096 169.792 357.67 169.536C357.254 169.28 356.779 169.152 356.246 169.152C355.446 169.152 354.774 169.424 354.23 169.968C353.696 170.512 353.43 171.189 353.43 172C353.43 172.8 353.696 173.472 354.23 174.016C354.774 174.56 355.446 174.832 356.246 174.832C356.779 174.832 357.259 174.709 357.686 174.464C358.112 174.208 358.438 173.867 358.662 173.44L359.846 174.128C359.504 174.757 359.014 175.264 358.374 175.648C357.734 176.021 357.024 176.208 356.246 176.208ZM361.22 176V164.32H362.612V176H361.22ZM365.44 166.544C365.173 166.544 364.949 166.453 364.768 166.272C364.586 166.091 364.496 165.872 364.496 165.616C364.496 165.36 364.586 165.141 364.768 164.96C364.949 164.768 365.173 164.672 365.44 164.672C365.696 164.672 365.914 164.768 366.096 164.96C366.277 165.141 366.368 165.36 366.368 165.616C366.368 165.872 366.277 166.091 366.096 166.272C365.914 166.453 365.696 166.544 365.44 166.544ZM364.736 176V168H366.128V176H364.736ZM372.011 176.208C370.806 176.208 369.803 175.808 369.003 175.008C368.203 174.197 367.803 173.195 367.803 172C367.803 170.805 368.203 169.808 369.003 169.008C369.803 168.197 370.806 167.792 372.011 167.792C372.801 167.792 373.51 167.984 374.139 168.368C374.769 168.741 375.238 169.248 375.547 169.888L374.379 170.56C374.177 170.133 373.862 169.792 373.435 169.536C373.019 169.28 372.545 169.152 372.011 169.152C371.211 169.152 370.539 169.424 369.995 169.968C369.462 170.512 369.195 171.189 369.195 172C369.195 172.8 369.462 173.472 369.995 174.016C370.539 174.56 371.211 174.832 372.011 174.832C372.545 174.832 373.025 174.709 373.451 174.464C373.878 174.208 374.203 173.867 374.427 173.44L375.611 174.128C375.27 174.757 374.779 175.264 374.139 175.648C373.499 176.021 372.79 176.208 372.011 176.208ZM383.754 176H382.026L378.378 172.208V176H376.986V164.8H378.378V171.536L381.834 168H383.626L379.802 171.872L383.754 176ZM385.639 170.16C385.639 170.469 385.793 170.72 386.103 170.912C386.412 171.093 386.785 171.243 387.223 171.36C387.66 171.467 388.097 171.595 388.535 171.744C388.972 171.883 389.345 172.128 389.655 172.48C389.964 172.821 390.119 173.264 390.119 173.808C390.119 174.533 389.836 175.115 389.271 175.552C388.716 175.989 388.001 176.208 387.127 176.208C386.348 176.208 385.681 176.037 385.127 175.696C384.572 175.355 384.177 174.901 383.943 174.336L385.143 173.648C385.271 174.032 385.511 174.336 385.863 174.56C386.215 174.784 386.636 174.896 387.127 174.896C387.585 174.896 387.964 174.811 388.263 174.64C388.561 174.459 388.711 174.181 388.711 173.808C388.711 173.499 388.556 173.253 388.247 173.072C387.937 172.88 387.564 172.731 387.127 172.624C386.689 172.507 386.252 172.373 385.815 172.224C385.377 172.075 385.004 171.829 384.695 171.488C384.385 171.147 384.231 170.709 384.231 170.176C384.231 169.483 384.497 168.912 385.031 168.464C385.575 168.016 386.252 167.792 387.063 167.792C387.713 167.792 388.289 167.941 388.791 168.24C389.303 168.528 389.687 168.933 389.943 169.456L388.775 170.112C388.487 169.429 387.916 169.088 387.063 169.088C386.668 169.088 386.332 169.184 386.055 169.376C385.777 169.557 385.639 169.819 385.639 170.16ZM392.475 176.176C392.187 176.176 391.942 176.075 391.739 175.872C391.536 175.669 391.435 175.424 391.435 175.136C391.435 174.848 391.536 174.603 391.739 174.4C391.942 174.197 392.187 174.096 392.475 174.096C392.774 174.096 393.019 174.197 393.211 174.4C393.414 174.603 393.515 174.848 393.515 175.136C393.515 175.424 393.414 175.669 393.211 175.872C393.019 176.075 392.774 176.176 392.475 176.176Z" fill="#141414"/>
</g>
<defs>
<filter id="filter0_b_1982_860" x="-212" y="-212" width="928" height="648" filterUnits="userSpaceOnUse" color-interpolation-filters="sRGB">
<feFlood flood-opacity="0" result="BackgroundImageFix"/>
<feGaussianBlur in="BackgroundImageFix" stdDeviation="106"/>
<feComposite in2="SourceAlpha" operator="in" result="effect1_backgroundBlur_1982_860"/>
<feBlend mode="normal" in="SourceGraphic" in2="effect1_backgroundBlur_1982_860" result="shape"/>
</filter>
</defs>
</svg>